<svg id="visual" viewBox="0 0 1980 7000" width="1980" height="7000" xmlns="http://www.w3.org/2000/svg" xmlns:xlink="http://www.w3.org/1999/xlink" version="1.1"><rect x="0" y="0" width="1980" height="7000" fill="#687a86"></rect><g fill="none" stroke="#fefefe" stroke-width="2"><circle r="202" cx="1533" cy="6611"></circle><circle r="11" cx="87" cy="6635"></circle><circle r="180" cx="817" cy="5221"></circle><circle r="147" cx="722" cy="1615"></circle><circle r="191" cx="1320" cy="2094"></circle><circle r="193" cx="97" cy="2988"></circle><circle r="47" cx="459" cy="5594"></circle><circle r="132" cx="1824" cy="4844"></circle><circle r="13" cx="287" cy="3520"></circle><circle r="89" cx="474" cy="6057"></circle><circle r="63" cx="1422" cy="1248"></circle><circle r="80" cx="1799" cy="5294"></circle><circle r="69" cx="262" cy="1600"></circle><circle r="112" cx="1097" cy="3830"></circle><circle r="98" cx="949" cy="3436"></circle><circle r="171" cx="984" cy="6489"></circle><circle r="121" cx="1248" cy="5289"></circle><circle r="183" cx="1260" cy="3100"></circle><circle r="141" cx="358" cy="1043"></circle><circle r="117" cx="1546" cy="5897"></circle><circle r="22" cx="1790" cy="2991"></circle><circle r="35" cx="538" cy="4007"></circle><circle r="156" cx="1933" cy="1389"></circle><circle r="79" cx="10" cy="4863"></circle><circle r="96" cx="1564" cy="2549"></circle><circle r="64" cx="937" cy="2407"></circle><circle r="96" cx="1070" cy="835"></circle><circle r="162" cx="898" cy="173"></circle><circle r="21" cx="879" cy="5972"></circle><circle r="31" cx="482" cy="2352"></circle><circle r="56" cx="480" cy="231"></circle><circle r="78" cx="1964" cy="2161"></circle><circle r="128" cx="1005" cy="4467"></circle><circle r="170" cx="1355" cy="15"></circle><circle r="174" cx="1465" cy="4146"></circle><circle r="150" cx="1907" cy="6973"></circle><circle r="138" cx="773" cy="2992"></circle><circle r="144" cx="18" cy="4346"></circle><circle r="38" cx="1759" cy="769"></circle><circle r="86" cx="535" cy="4522"></circle><circle r="32" cx="1144" cy="1714"></circle><circle r="200" cx="1699" cy="3425"></circle></g></svg>