<svg id="visual" viewBox="0 0 1980 7000" width="1980" height="7000" xmlns="http://www.w3.org/2000/svg" xmlns:xlink="http://www.w3.org/1999/xlink" version="1.1"><rect x="0" y="0" width="1980" height="7000" fill="#001220"></rect><g fill="none" stroke="#A7233A" stroke-width="19"><circle r="288" cx="1270" cy="5293"></circle><circle r="35" cx="77" cy="4198"></circle><circle r="53" cx="305" cy="5012"></circle><circle r="126" cx="1254" cy="6347"></circle><circle r="44" cx="1463" cy="3836"></circle><circle r="120" cx="1461" cy="1489"></circle><circle r="125" cx="910" cy="831"></circle><circle r="248" cx="636" cy="6927"></circle><circle r="206" cx="1572" cy="2855"></circle><circle r="65" cx="545" cy="3532"></circle><circle r="273" cx="1429" cy="4654"></circle><circle r="255" cx="401" cy="332"></circle><circle r="128" cx="987" cy="3079"></circle><circle r="52" cx="1814" cy="5976"></circle><circle r="60" cx="1462" cy="2092"></circle><circle r="68" cx="480" cy="5689"></circle><circle r="281" cx="499" cy="1268"></circle><circle r="97" cx="441" cy="2561"></circle><circle r="246" cx="1257" cy="137"></circle></g></svg>